<?xml version="1.0" standalone="no"?>
<!DOCTYPE svg PUBLIC "-//W3C//DTD SVG 20010904//EN"
 "http://www.w3.org/TR/2001/REC-SVG-20010904/DTD/svg10.dtd">
<svg version="1.0" xmlns="http://www.w3.org/2000/svg"
 width="420.000000pt" height="420.000000pt" viewBox="0 0 420.000000 420.000000"
 preserveAspectRatio="xMidYMid meet">

<g transform="translate(0.000000,420.000000) scale(0.100000,-0.100000)"
fill="#000000" stroke="none">
<path d="M1815 3524 c-16 -3 -97 -14 -180 -25 -167 -22 -271 -43 -320 -63 -52
-22 -214 -134 -260 -181 -47 -47 -124 -181 -167 -291 -42 -108 -50 -185 -37
-349 l11 -140 -36 -120 c-20 -66 -48 -158 -63 -205 -22 -70 -27 -105 -27 -195
-1 -98 2 -121 31 -205 47 -143 57 -227 48 -388 -15 -233 -11 -307 18 -391 14
-41 43 -101 63 -134 l37 -60 -7 -108 c-4 -73 -3 -110 5 -114 16 -10 18 -4 35
84 15 79 15 83 -5 122 -25 47 -26 65 -5 99 l15 25 -6 -25 c-4 -14 6 -3 22 25
16 28 43 70 60 95 46 65 200 223 211 216 5 -3 16 2 23 12 13 16 13 16 -6 2
-18 -14 -19 -14 -7 2 8 9 19 15 26 12 7 -3 26 13 44 35 20 25 55 51 95 69 66
31 113 76 123 117 11 44 42 43 224 -5 61 -17 115 -23 190 -24 140 -1 183 19
299 136 76 78 161 141 161 121 0 -4 5 -1 10 7 8 12 37 15 163 14 l154 0 49
-36 c27 -20 58 -46 69 -58 19 -21 55 -45 55 -37 0 5 -119 105 -137 115 -20 12
-63 177 -63 245 0 32 12 115 27 185 20 91 27 156 27 232 1 123 -9 152 -103
289 -66 97 -199 356 -226 441 -34 106 -106 232 -170 296 -47 48 -76 68 -136
92 -128 53 -253 77 -334 66z m-85 -735 c31 -50 32 -51 68 -43 20 4 87 8 147 9
61 1 132 8 158 15 51 13 114 9 163 -11 16 -7 38 -13 48 -15 26 -2 76 -59 76
-85 0 -11 19 -77 43 -147 39 -119 42 -134 41 -232 0 -68 -7 -126 -18 -164 -20
-68 -84 -199 -129 -266 -42 -62 -146 -169 -181 -187 -46 -24 -203 -53 -287
-53 -68 0 -89 5 -182 43 -58 24 -123 57 -146 74 -49 36 -169 148 -197 184 -11
15 -33 34 -49 42 -17 9 -40 25 -52 36 -22 18 -22 19 -16 281 l6 262 26 24 c14
13 30 24 35 24 5 0 32 11 61 24 92 44 218 86 257 86 40 0 58 19 58 59 0 12 5
21 11 21 8 0 10 12 6 35 -9 52 15 45 53 -16z m-156 -29 l17 -30 -33 0 c-33 0
-34 1 -30 34 5 41 20 39 46 -4z"/>
<path d="M2209 2609 c-31 -3 -74 -15 -95 -25 -42 -20 -87 -80 -98 -129 l-7
-30 19 23 18 23 17 -36 c16 -33 19 -35 65 -35 34 0 57 6 75 20 14 11 30 20 35
20 31 0 18 91 -16 116 -9 7 -15 15 -12 17 10 10 85 -23 103 -44 14 -17 21 -19
30 -10 9 9 9 16 -1 32 -7 11 -10 24 -7 30 4 5 3 8 -2 7 -10 -3 -56 13 -63 21
-3 4 -30 4 -61 0z m-92 -80 c14 -14 6 -39 -12 -39 -18 0 -28 17 -21 35 6 18
18 19 33 4z"/>
<path d="M1446 2474 c-21 -7 -42 -12 -46 -9 -4 3 -11 -2 -14 -11 -3 -8 -11
-12 -17 -8 -8 4 -9 3 -5 -5 4 -6 1 -14 -8 -17 -8 -3 -12 -12 -9 -20 3 -8 0
-14 -6 -14 -13 0 -11 -32 3 -42 5 -3 22 11 37 32 16 22 37 44 49 50 18 10 19
9 9 -14 -15 -32 -4 -88 21 -111 25 -23 102 -16 133 13 12 11 27 18 33 15 15
-5 24 45 13 74 -11 30 -7 29 36 -8 20 -18 35 -26 35 -18 -1 21 -30 54 -74 83
-45 30 -124 34 -190 10z m64 -63 c0 -27 -19 -36 -37 -18 -18 18 -9 37 18 37
12 0 19 -7 19 -19z"/>
<path d="M1995 2171 c-3 -6 -27 -13 -53 -16 -66 -9 -83 -15 -77 -26 17 -26
145 5 145 35 0 18 -6 21 -15 7z"/>
<path d="M2160 2075 c-14 -8 -43 -17 -65 -20 -22 -4 -66 -13 -98 -21 -98 -25
-270 -54 -319 -54 -55 0 -65 -10 -42 -44 44 -69 219 -106 335 -73 105 31 227
146 217 206 -3 18 -5 18 -28 6z m-32 -60 c14 -14 -24 -24 -173 -50 -88 -14
-169 -29 -180 -32 -19 -5 -19 -4 1 10 23 18 299 85 328 81 10 -2 21 -6 24 -9z"/>
<path d="M3223 2690 c14 -20 31 -47 37 -60 10 -24 10 -24 5 5 -4 17 -20 44
-37 60 l-31 30 26 -35z"/>
<path d="M3273 2535 c0 -33 2 -45 4 -27 2 18 2 45 0 60 -2 15 -4 0 -4 -33z"/>
<path d="M3271 2369 c-1 -35 33 -164 58 -219 29 -63 26 -26 -3 46 -14 33 -31
91 -39 130 -9 38 -16 57 -16 43z"/>
<path d="M3801 2135 c-19 -13 -60 -29 -90 -36 -68 -14 -72 -16 -65 -34 4 -10
11 -11 22 -5 10 4 37 15 62 24 25 9 61 29 80 46 42 35 38 38 -9 5z"/>
<path d="M3363 1720 c0 -30 2 -43 4 -27 2 15 2 39 0 55 -2 15 -4 2 -4 -28z"/>
<path d="M3015 1485 c42 -39 95 -79 95 -72 0 2 -30 27 -67 56 -38 29 -50 36
-28 16z"/>
<path d="M3373 1415 c0 -44 2 -61 4 -37 2 23 2 59 0 80 -2 20 -4 1 -4 -43z"/>
<path d="M2588 1310 c-7 -43 -4 -59 8 -48 3 3 4 26 2 49 l-3 44 -7 -45z"/>
<path d="M3383 1270 c0 -25 2 -35 4 -22 2 12 2 32 0 45 -2 12 -4 2 -4 -23z"/>
<path d="M3282 1284 c10 -10 20 -16 22 -13 3 3 -5 11 -17 18 -21 13 -21 12 -5
-5z"/>
<path d="M1350 1259 c-18 -33 -7 -41 12 -9 9 17 13 30 8 30 -5 0 -14 -9 -20
-21z"/>
<path d="M2594 1189 c2 -43 13 -87 30 -125 23 -52 25 -66 18 -119 -5 -38 -3
-94 5 -150 7 -49 12 -112 13 -139 l0 -50 31 30 c52 49 62 79 55 154 -6 56 -4
70 11 89 l18 22 90 -57 c50 -31 95 -58 100 -60 6 -3 10 25 10 71 l0 75 -60 40
c-33 22 -63 40 -67 40 -4 0 -10 -17 -14 -37 -9 -51 -13 -56 -31 -42 -10 9 -14
28 -11 67 l3 54 -64 39 c-35 21 -68 36 -72 33 -5 -3 -9 -22 -9 -42 -1 -35 -2
-36 -15 -18 -8 11 -15 38 -15 60 0 23 -7 61 -15 86 l-15 45 4 -66z"/>
<path d="M3357 1224 c2 -7 11 -15 19 -18 8 -3 14 -10 14 -16 0 -16 -28 -12
-38 6 -8 14 -10 14 -26 -1 -20 -21 -6 -45 27 -45 20 0 20 1 2 13 -16 13 -15
14 13 9 28 -4 32 -1 32 19 0 16 -9 28 -24 35 -19 9 -23 9 -19 -2z"/>
<path d="M3800 1210 c0 -23 12 -25 42 -9 17 9 18 13 7 20 -25 16 -49 10 -49
-11z"/>
<path d="M3870 1145 c0 -8 37 -173 46 -204 3 -8 7 -11 10 -8 7 7 -33 182 -47
207 -5 8 -9 11 -9 5z"/>
<path d="M3315 1075 c11 -107 17 -118 59 -128 20 -5 39 -8 41 -6 2 2 -2 40 -7
85 l-11 80 -45 16 -44 16 7 -63z"/>
<path d="M3360 892 c0 -4 16 -30 35 -57 19 -28 42 -64 51 -82 10 -18 24 -35
32 -38 12 -4 13 2 8 35 -13 82 -33 115 -81 132 -25 10 -45 14 -45 10z"/>
<path d="M3011 843 c-20 -78 -22 -73 79 -149 52 -39 147 -112 210 -163 63 -51
144 -106 180 -124 60 -30 72 -32 165 -32 110 0 156 16 205 71 14 16 17 22 7
15 -32 -25 -204 4 -283 49 -29 16 -58 30 -64 30 -6 0 -30 9 -52 20 -23 11 -43
20 -45 20 -8 0 -1 -45 12 -77 8 -20 13 -38 10 -41 -11 -11 -56 44 -67 82 -6
23 -16 47 -21 54 -6 8 -6 12 2 12 21 0 11 16 -21 35 -18 10 -51 34 -72 52
l-40 33 -12 -27 c-6 -16 -9 -32 -6 -36 2 -5 -4 -7 -14 -5 -16 3 -19 13 -20 62
l0 59 -60 48 c-32 27 -64 48 -71 49 -7 0 -17 -17 -22 -37z"/>
<path d="M3938 830 c-4 -8 -12 -54 -17 -103 -6 -48 -19 -108 -30 -133 l-20
-45 27 3 c23 3 29 10 40 53 13 52 13 252 0 225z"/>
<path d="M3470 669 c0 -8 7 -24 15 -35 18 -24 19 -7 0 26 -9 16 -14 19 -15 9z"/>
<path d="M2751 632 c-1 -7 -23 -37 -51 -66 l-49 -52 -11 -113 c-7 -62 -9 -115
-7 -118 9 -8 92 53 110 80 20 30 33 208 18 252 -5 17 -10 24 -10 17z"/>
<path d="M3425 590 c27 -12 43 -12 25 0 -8 5 -22 9 -30 9 -10 0 -8 -3 5 -9z"/>
<path d="M1494 575 c-23 -18 -58 -19 -87 -3 -12 6 -5 -5 16 -24 31 -30 37 -42
37 -76 0 -31 5 -45 22 -56 28 -20 38 -20 38 -2 0 8 7 16 15 20 8 3 15 13 15
22 0 10 -5 14 -15 10 -8 -3 -15 -1 -15 4 0 11 29 40 40 40 15 0 22 38 10 60
-13 24 -48 26 -76 5z"/>
<path d="M3478 573 c6 -2 18 -2 25 0 6 3 1 5 -13 5 -14 0 -19 -2 -12 -5z"/>
<path d="M907 478 c-3 -12 -9 -59 -12 -104 -6 -67 -5 -82 8 -87 21 -8 43 181
23 201 -11 11 -14 10 -19 -10z"/>
<path d="M1465 318 c-3 -24 -7 -63 -8 -88 -2 -39 1 -45 19 -48 38 -5 52 21 53
103 l1 75 -30 0 c-26 0 -29 -4 -35 -42z"/>
<path d="M2693 252 l-62 -63 6 -85 c3 -46 9 -87 13 -89 13 -8 88 53 103 82 11
21 13 52 8 123 l-6 95 -62 -63z"/>
<path d="M876 194 c-10 -79 -7 -141 8 -147 20 -8 33 160 13 180 -12 12 -15 8
-21 -33z"/>
<path d="M1475 136 c-36 -10 -40 -16 -47 -51 -14 -80 -12 -85 32 -85 40 0 40
0 40 38 0 20 4 53 10 71 5 19 9 36 7 37 -1 1 -20 -4 -42 -10z"/>
<path d="M2749 43 c-7 -16 -15 -31 -17 -35 -2 -5 6 -8 17 -8 17 0 21 6 21 35
0 42 -3 43 -21 8z"/>
</g>
</svg>
